<?xml version="1.0" standalone="no"?>
<!DOCTYPE svg PUBLIC "-//W3C//DTD SVG 20010904//EN"
 "http://www.w3.org/TR/2001/REC-SVG-20010904/DTD/svg10.dtd">
<svg version="1.0" xmlns="http://www.w3.org/2000/svg"
 width="512.000000pt" height="512.000000pt" viewBox="0 0 512.000000 512.000000"
 preserveAspectRatio="xMidYMid meet">

<g transform="translate(0.000000,512.000000) scale(0.100000,-0.100000)"
fill="#000000" stroke="none">
<path d="M534 5105 c-232 -51 -420 -219 -500 -446 l-29 -84 -3 -985 -2 -985
486 -188 486 -187 64 60 c203 189 398 274 694 303 20 2 80 76 315 389 l291
386 12 119 c20 194 76 372 166 522 185 310 480 521 836 598 118 25 372 25 490
0 595 -128 1010 -634 1010 -1233 0 -515 -314 -974 -799 -1169 -128 -51 -252
-75 -417 -82 l-141 -6 -334 -251 -334 -251 -7 -105 c-19 -295 -118 -519 -319
-718 -308 -306 -799 -383 -1194 -187 -115 57 -203 124 -301 228 -159 169 -249
369 -275 610 -6 56 -14 105 -17 108 -4 3 -122 50 -262 104 -140 54 -299 115
-353 136 l-98 38 3 -642 3 -642 29 -84 c82 -233 282 -407 520 -450 84 -15
3928 -15 4012 0 241 44 443 221 520 456 l29 88 0 2005 c0 1916 -1 2008 -18
2064 -72 233 -230 392 -467 472 -53 18 -133 19 -2045 21 -1626 1 -2001 -1
-2051 -12z"/>
<path d="M3446 4154 c-289 -65 -511 -277 -588 -563 -28 -105 -28 -277 0 -382
96 -359 422 -597 787 -576 319 19 583 221 692 532 25 74 27 91 27 235 0 144
-2 161 -27 235 -88 250 -270 426 -522 505 -94 29 -272 36 -369 14z m348 -248
c110 -42 197 -114 267 -220 111 -168 110 -406 0 -572 -54 -80 -68 -95 -143
-152 -86 -64 -167 -93 -288 -99 -111 -6 -192 11 -283 59 -71 38 -175 140 -216
212 -38 66 -71 190 -71 266 0 76 33 200 71 266 68 120 208 226 342 260 85 22
238 12 321 -20z"/>
<path d="M1624 2122 c-60 -18 -178 -71 -172 -77 2 -2 111 -44 243 -95 285
-109 323 -128 376 -183 203 -208 91 -555 -196 -608 -38 -7 -73 -7 -115 1 -45
8 -354 121 -567 207 -19 8 21 -99 63 -169 148 -242 455 -355 724 -264 200 68
352 231 405 435 20 79 20 227 0 306 -22 86 -79 194 -136 258 -64 72 -182 151
-267 178 -95 30 -273 36 -358 11z"/>
</g>
</svg>
