<?xml version="1.0" standalone="no"?>
<!DOCTYPE svg PUBLIC "-//W3C//DTD SVG 20010904//EN"
 "http://www.w3.org/TR/2001/REC-SVG-20010904/DTD/svg10.dtd">
<svg version="1.0" xmlns="http://www.w3.org/2000/svg"
 width="225.000000pt" height="225.000000pt" viewBox="0 0 225.000000 225.000000"
 preserveAspectRatio="xMidYMid meet">

<g transform="translate(0.000000,225.000000) scale(0.100000,-0.100000)"
fill="#000000" stroke="none">
<path d="M0 1125 l0 -1125 1125 0 1125 0 0 1125 0 1125 -1125 0 -1125 0 0
-1125z m1073 393 c22 -7 58 -29 80 -50 l39 -37 46 35 c117 89 303 83 394 -13
60 -62 63 -81 66 -403 3 -293 3 -296 -18 -315 -31 -28 -148 -29 -179 -1 -20
18 -21 28 -21 277 0 260 -5 300 -38 325 -23 18 -106 17 -141 -1 -56 -28 -61
-58 -61 -328 0 -298 2 -292 -109 -292 -110 0 -105 -15 -111 314 -6 324 -5 321
-92 321 -66 0 -105 -22 -129 -73 -17 -38 -19 -68 -19 -284 0 -268 0 -266 -66
-279 -55 -10 -116 2 -136 26 -16 20 -18 53 -18 376 0 341 1 355 20 374 15 15
33 20 76 20 72 0 94 -12 94 -51 l0 -31 31 26 c82 69 194 93 292 64z"/>
</g>
</svg>
